<svg width="1450" height="323" viewBox="0 0 1450 323" fill="none" xmlns="http://www.w3.org/2000/svg">
<path d="M1360.65 0C1387.59 0 1408.41 6.7564 1423.11 21.1926C1437.81 35.3217 1445.16 56.976 1445.16 86.1556V87.9986C1445.16 101.206 1443.63 112.878 1440.56 123.014C1437.81 132.843 1434.13 141.136 1429.54 147.893C1424.95 154.344 1419.9 159.412 1414.38 163.098C1408.87 166.476 1403.51 168.319 1398.31 168.626V173.694C1403.51 174.001 1408.87 176.152 1414.38 180.145C1419.9 183.83 1424.95 189.052 1429.54 195.809C1434.13 202.567 1437.81 210.86 1440.56 220.689C1443.63 230.211 1445.16 240.961 1445.16 252.94V256.626C1445.16 269.833 1445.31 281.659 1445.62 292.102C1446.23 302.545 1447.61 312.681 1449.75 322.51H1376.72C1374.58 312.681 1373.2 302.392 1372.59 291.641C1372.28 280.584 1372.13 268.758 1372.13 256.165V218.846C1372.13 213.01 1371.21 209.017 1369.37 206.867C1367.54 204.41 1364.32 203.181 1359.73 203.181H1351.92V322.51H1278.43V0H1360.65ZM1351.92 139.14H1359.73C1364.32 139.14 1367.54 137.911 1369.37 135.454C1371.21 132.997 1372.13 128.85 1372.13 123.014V79.2447C1372.13 73.7159 1371.21 69.7229 1369.37 67.2657C1367.54 64.8084 1364.32 63.5798 1359.73 63.5798H1351.92V139.14Z" fill="currentColor"/>
<path d="M554.506 0C581.451 0 602.272 6.7564 616.97 21.1926C631.667 35.3217 639.016 56.976 639.016 86.1556V87.9986C639.016 101.206 637.485 112.878 634.423 123.014C631.667 132.843 627.993 141.136 623.4 147.893C618.807 154.344 613.754 159.412 608.243 163.098C602.731 166.476 597.373 168.319 592.168 168.626V173.694C597.373 174.001 602.731 176.152 608.243 180.145C613.754 183.83 618.807 189.052 623.4 195.809C627.993 202.567 631.667 210.86 634.423 220.689C637.485 230.211 639.016 240.961 639.016 252.94V256.626C639.016 269.833 639.169 281.659 639.475 292.102C640.087 302.545 641.465 312.681 643.609 322.51H570.581C568.437 312.681 567.06 302.392 566.447 291.641C566.141 280.584 565.988 268.758 565.988 256.165V218.846C565.988 213.01 565.069 209.017 563.232 206.867C561.395 204.41 558.18 203.181 553.587 203.181H545.779V322.51H472.292V0H554.506ZM545.779 139.14H553.587C558.18 139.14 561.395 137.911 563.232 135.454C565.069 132.997 565.988 128.85 565.988 123.014V79.2447C565.988 73.7159 565.069 69.7229 563.232 67.2657C561.395 64.8084 558.18 63.5798 553.587 63.5798H545.779V139.14Z" fill="currentColor"/>
<path d="M1248.17 0.000488281L1275.73 322.512H1202.25L1198.57 249.255H1182.04L1178.36 322.512H1104.88L1133.81 0.000488281H1248.17ZM1195.86 185.214L1192.6 119.184H1188.01L1184.29 185.214H1195.86Z" fill="currentColor"/>
<path d="M1056.7 64.0415V121.172H1100.8V185.214H1056.7V258.47H1102.17V322.511H983.217V0H1101.71V64.0415H1056.7Z" fill="currentColor"/>
<path d="M442.53 0.000488281L470.088 322.512H396.601L392.927 249.255H376.392L372.718 322.512H299.231L328.166 0.000488281H442.53ZM390.212 185.214L386.956 119.184H382.363L378.648 185.214H390.212Z" fill="currentColor"/>
<path d="M251.059 64.0415V121.172H295.152V185.214H251.059V258.47H296.53V322.511H177.572V0H296.07V64.0415H251.059Z" fill="currentColor"/>
<path d="M895.21 0C921.543 0 942.211 6.60381 957.215 19.8114C972.524 32.7119 980.179 52.984 980.179 80.6278V241.883C980.179 269.527 972.524 289.953 957.215 303.161C942.211 316.061 921.543 322.511 895.21 322.511H812.537V0H895.21ZM886.483 258.47H894.751C898.731 258.47 901.64 257.548 903.477 255.705C905.621 253.555 906.692 249.409 906.692 243.266V79.2456C906.692 73.1026 905.621 69.1096 903.477 67.2666C901.64 65.1166 898.731 64.0415 894.751 64.0415H886.483V258.47Z" fill="currentColor"/>
<path d="M174.072 0V322.511H94.1553L61.5454 129.465H57.4117L73.487 322.511H0V0H79.9171L114.364 194.428H118.498L100.585 0H174.072Z" fill="currentColor"/>
<path d="M705.474 290.04C688.938 290.04 675.931 283.872 666.453 271.536C657.076 259.2 652.387 242.202 652.387 220.542C652.387 205.098 653.799 192.277 656.622 182.078C659.546 171.879 663.579 163.38 668.722 156.581C673.864 149.782 679.762 143.857 686.417 138.806L685.207 135.892C680.972 125.791 677.242 116.175 674.015 107.044C670.889 97.8167 669.327 88.3464 669.327 78.6333C669.327 68.823 671.494 60.1298 675.83 52.5536C680.166 44.9773 686.165 39.0523 693.828 34.7785C701.592 30.4076 710.465 28.2222 720.447 28.2222C730.328 28.2222 739.302 30.3105 747.368 34.4871C755.536 38.5666 762.039 44.7345 766.879 52.9906C771.719 61.2468 774.139 71.6884 774.139 84.3155C774.139 98.011 771.467 109.472 766.123 118.7C760.88 127.927 752.964 136.815 742.377 145.363L756.897 180.621C762.846 166.149 771.416 154.93 782.608 146.965L803.631 178.581C791.935 187.615 782.155 202.33 774.29 222.728L803.26 288.744H749.747L743.587 273.139C739.655 277.801 734.361 281.783 727.707 285.086C721.153 288.388 713.742 290.04 705.474 290.04ZM716.817 74.1167C716.817 76.6421 717.473 80.3817 718.783 85.3354C720.094 90.1919 723.169 98.6423 728.009 110.687C729.925 108.744 731.639 105.684 733.152 101.508C734.664 97.3311 735.42 91.6003 735.42 84.3155C735.42 76.8364 734.462 71.5913 732.547 68.5802C730.732 65.5691 728.312 64.0636 725.287 64.0636C722.363 64.0636 720.195 65.1321 718.783 67.2689C717.473 69.3087 716.817 71.5913 716.817 74.1167ZM698.668 226.807C698.668 244.096 703.76 252.741 713.944 252.741C718.078 252.741 721.405 251.284 723.926 248.37C726.446 245.359 728.16 242.251 729.068 239.046L703.659 179.456C700.332 186.255 698.668 198.153 698.668 215.151V226.807Z" fill="currentColor"/>
<rect x="650.89" y="295.54" width="154.238" height="26.9717" fill="currentColor"/>
</svg>
