 <svg width="101" height="30" viewBox="0 0 101 30" fill="none" xmlns="http://www.w3.org/2000/svg">
<path fill-rule="evenodd" clip-rule="evenodd" d="M21.1613 16.1109C21.8644 16.7442 22.3824 17.4842 22.7056 18.3146C23.0275 19.1419 23.1908 20.1064 23.1908 21.1816C23.1908 23.8832 22.1928 26.0529 20.2243 27.6302C18.2618 29.2026 15.5801 30 12.2536 30C8.80214 30 5.99959 29.2478 3.92406 27.7641C1.84433 26.2775 0.529668 24.0942 0.0165936 21.2746L0 21.1832L3.65546 20.1161L3.6725 20.2365C3.97318 22.3587 4.87388 24.0021 6.34938 25.1215C7.82843 26.2436 9.85351 26.8125 12.3682 26.8125C14.6039 26.8125 16.3584 26.3377 17.5835 25.4008C18.8006 24.4703 19.4176 23.1258 19.4176 21.4053C19.4176 20.2732 19.0747 19.3775 18.3981 18.7432C17.7142 18.1021 16.4374 17.5785 14.6035 17.1872C14.3991 17.1373 13.4619 16.9552 11.7357 16.6291C10.029 16.3069 8.58311 15.9677 7.43815 15.6208C6.59298 15.3716 5.83321 15.0746 5.18097 14.7383C4.52409 14.4 3.95526 13.999 3.49086 13.5467C2.87025 12.9429 2.39214 12.2101 2.06911 11.3683C1.74742 10.5287 1.58414 9.59565 1.58414 8.59492C1.58414 5.99321 2.5302 3.88671 4.3962 2.33377C6.25712 0.785075 8.77205 0 11.8709 0C14.7902 0 17.2069 0.702612 19.0543 2.08839C20.9027 3.47484 22.1647 5.53061 22.8054 8.1987L22.8297 8.29971L19.2517 9.13038L19.2287 9.02624C18.8021 7.09808 17.9585 5.62715 16.7211 4.65391C15.4836 3.68067 13.8132 3.18745 11.756 3.18745C9.74997 3.18745 8.15676 3.64312 7.02087 4.54217C5.89162 5.43563 5.31903 6.69872 5.31903 8.29681C5.31903 9.42961 5.66904 10.3445 6.35934 11.0161C7.05583 11.6941 8.30035 12.236 10.0577 12.6269C10.4692 12.7268 11.5107 12.9393 13.155 13.2593C14.8064 13.5805 16.1741 13.8945 17.2204 14.1924C18.0906 14.4415 18.8373 14.7198 19.4395 15.019C20.0429 15.3187 20.6221 15.6861 21.1613 16.1109ZM95.5489 26.1919C96.5817 25.4803 97.4167 24.365 98.0543 22.8464L101 23.8074C100.184 25.8004 98.9597 27.3309 97.3275 28.3987C95.6954 29.466 93.7575 29.9999 91.5134 29.9999C88.326 29.9999 85.7952 29.0511 83.9208 27.1528C82.0466 25.2548 81.1094 22.6925 81.1094 19.4655C81.1094 16.3571 82.053 13.8184 83.94 11.8491C85.8271 9.87963 88.2621 8.89499 91.2459 8.89499C93.0561 8.89499 94.65 9.28071 96.027 10.0517C97.4041 10.8229 98.4752 11.9204 99.24 13.3437C99.7245 14.2455 100.088 15.2596 100.33 16.3866C100.573 17.5138 100.694 19.0221 100.694 20.3506L100.641 20.3498L100.694 20.3551H84.8994C85.0268 22.4274 85.4919 24.0832 86.6749 25.3199C87.9117 26.6131 89.55 27.2597 91.5899 27.2597C93.1966 27.2597 94.5161 26.9037 95.5489 26.1919ZM97.0981 17.7925C97.0981 14.2314 94.5057 11.6 90.9905 11.6C87.6174 11.6 84.883 14.3724 84.883 17.7925H97.0981ZM42.4389 22.8464C41.8015 24.365 40.9663 25.4803 39.9335 26.1919C38.9007 26.9037 37.5812 27.2597 35.9744 27.2597C33.9345 27.2597 32.2962 26.6131 31.0594 25.3199C29.8766 24.0832 29.4113 22.4274 29.2839 20.3551H45.0781L45.0253 20.3498L45.0781 20.3506C45.0781 19.0221 44.9571 17.5138 44.7149 16.3866C44.4726 15.2596 44.1093 14.2455 43.6248 13.3437C42.8597 11.9204 41.7886 10.8229 40.4116 10.0517C39.0348 9.28071 37.4409 8.89499 35.6304 8.89499C32.6469 8.89499 30.2116 9.87963 28.3246 11.8491C26.4375 13.8184 25.4941 16.3571 25.4941 19.4655C25.4941 22.6925 26.4311 25.2548 28.3055 27.1528C30.1797 29.0511 32.7106 29.9999 35.8981 29.9999C38.142 29.9999 40.0802 29.466 41.7121 28.3987C43.3442 27.3309 44.5682 25.8004 45.3841 23.8074L42.4389 22.8464ZM35.3751 11.6C38.8903 11.6 41.4826 14.2314 41.4826 17.7925H29.2675C29.2675 14.3724 32.0019 11.6 35.3751 11.6ZM62.2593 17.9461V29.5946H66.0763V16.8908C66.0763 11.8988 63.666 8.89503 59.3663 8.89503C54.2637 8.89503 52.2941 12.9958 51.8122 14.983L52.4151 9.30132H47.9941V29.5946H51.8122V17.6211C52.0532 14.7396 54.1829 11.3712 57.7587 11.3712C60.9737 11.3712 62.2593 13.5223 62.2593 17.9461ZM72.1022 2.12846V9.3014H67.8828V12.1525H72.1022V29.5947H75.919V12.1525H80.5004V9.3014H75.919V2.12846H72.1022ZM89.5195 6.45033H92.0668L94.9102 2.12851H91.2528L89.5195 6.45033Z" fill="#1C1C1A"/>
</svg>
